<svg width="108" height="108" viewBox="0 0 108 108" fill="none" xmlns="http://www.w3.org/2000/svg">
<path d="M32.7538 35.6545C31.4892 33.7524 33.7524 31.4892 35.6545 32.7538L52.8416 44.1803C53.5434 44.6469 54.4566 44.6469 55.1584 44.1803L72.3455 32.7538C74.2476 31.4892 76.5108 33.7524 75.2462 35.6545L63.8197 52.8416C63.3531 53.5434 63.3531 54.4566 63.8197 55.1584L75.2462 72.3455C76.5108 74.2476 74.2476 76.5108 72.3455 75.2462L55.1584 63.8197C54.4566 63.3531 53.5434 63.3531 52.8416 63.8197L35.6545 75.2462C33.7524 76.5108 31.4892 74.2476 32.7538 72.3455L44.1803 55.1584C44.6469 54.4566 44.6469 53.5434 44.1803 52.8416L32.7538 35.6545Z" fill="#B095AB"/>
<path d="M51.9489 26.0044C52.3997 23.7653 55.6004 23.7653 56.0512 26.0044L60.1245 46.2374C60.2908 47.0635 60.9366 47.7093 61.7627 47.8756L81.9957 51.9489C84.2348 52.3997 84.2348 55.6004 81.9957 56.0512L61.7627 60.1245C60.9366 60.2908 60.2908 60.9366 60.1245 61.7627L56.0512 81.9957C55.6004 84.2348 52.3997 84.2348 51.9489 81.9957L47.8756 61.7627C47.7093 60.9366 47.0635 60.2908 46.2374 60.1245L26.0044 56.0512C23.7653 55.6004 23.7653 52.3997 26.0044 51.9489L46.2374 47.8756C47.0635 47.7093 47.7093 47.0635 47.8756 46.2374L51.9489 26.0044Z" fill="#F4C8FB"/>
</svg>
